<?xml version="1.0" standalone="no"?>
<!DOCTYPE svg PUBLIC "-//W3C//DTD SVG 20010904//EN"
        "http://www.w3.org/TR/2001/REC-SVG-20010904/DTD/svg10.dtd">
<svg version="1.0" xmlns="http://www.w3.org/2000/svg"
     width="735.000000pt" height="498.000000pt" viewBox="0 0 735.000000 498.000000"
     preserveAspectRatio="xMidYMid meet">

    <g transform="translate(0.000000,498.000000) scale(0.100000,-0.100000)"
       fill="#000000" stroke="none">
        <path d="M4691 3909 c-194 -197 -359 -359 -365 -359 -6 0 -170 159 -364 353
l-352 352 -357 -358 -358 -358 -358 361 c-299 302 -360 359 -375 351 -9 -6
-367 -361 -794 -789 l-777 -779 137 -136 137 -137 657 657 c362 362 661 659
665 660 5 2 108 -97 231 -220 l222 -222 -355 -355 c-195 -195 -355 -359 -355
-365 0 -6 378 -388 840 -850 l839 -839 846 845 845 845 -360 359 -360 360 227
227 228 228 662 -662 663 -663 135 135 135 135 -793 792 -792 792 -354 -360z
m-499 -1922 l-582 -582 -580 580 -580 580 582 582 583 583 580 -580 580 -580
-583 -583z"/>
    </g>
</svg>
